<?xml version="1.0" encoding="utf-8"?>
<!-- Generator: Adobe Illustrator 24.2.1, SVG Export Plug-In . SVG Version: 6.00 Build 0)  -->
<svg version="1.1" id="Layer_1" xmlns="http://www.w3.org/2000/svg" xmlns:xlink="http://www.w3.org/1999/xlink" x="0px" y="0px"
	 viewBox="0 0 380.7 96.8" style="enable-background:new 0 0 380.7 96.8;" xml:space="preserve">
<style type="text/css">
	.st0{fill:#AAAAAA;}
	.st1{fill:#FB4F14;}
	.st2{font-family:'HelveticaNeue';}
	.st3{font-size:2.4807px;}
	.st4{fill:#113052;}
	.st5{fill:#2D6590;}
	.st6{fill:#A6A7AA;}
	.st7{fill:#122F51;}
	.st8{fill:#919395;}
	.st9{fill:#F05A2C;}
</style>
<g>
	<g>
		<g>
			<path class="st0" d="M267.1,78.2h1.6v5.6c0.8-1.1,2.1-1.8,3.5-1.8c2.7,0,4.6,2.2,4.6,5.5c0,3.4-1.9,5.5-4.6,5.5
				c-1.5,0-2.7-0.8-3.5-1.8v1.6h-1.6V78.2z M271.8,91.4c2.1,0,3.4-1.7,3.4-4c0-2.3-1.3-4-3.4-4c-1.3,0-2.5,0.8-3.1,1.7v4.7
				C269.3,90.7,270.5,91.4,271.8,91.4z"/>
			<path class="st0" d="M280.1,95.4c0.7,0,1.2-0.2,1.6-1.1l0.7-1.6L278,82.2h1.8l3.5,8.6l3.5-8.6h1.8l-5.2,12.6
				c-0.6,1.5-1.7,2.1-3.1,2.1c-0.3,0-0.9-0.1-1.2-0.2l0.3-1.5C279.4,95.3,279.8,95.4,280.1,95.4z"/>
		</g>
		<g>
			<text transform="matrix(1 0 0 1 369.7254 75.681)" class="st1 st2 st3">®</text>
			<path class="st1" d="M312,92c0.2,0.2,0.5,0.2,0.7,0c0.2-0.1,0.4-0.3,0.6-0.6c0.2-0.2,0.5-0.5,0.6-0.6c0.2-0.3,0.2-0.7-0.1-0.9
				l-1.6-1.2c0,0-0.3,0.4-0.9,1c-0.6,0.6-1.1,1-1.1,1L312,92z"/>
			<path class="st1" d="M329.9,86.6c0,4.2-3,6.2-6.4,6.2c-3.4,0-6.4-2-6.4-6.2v-7.9c0-0.3,0.3-0.6,0.6-0.6h1.6v8.3
				c0,2.9,1.8,4.3,4.2,4.3c2.4,0,4.2-1.4,4.2-4.3v-8.3h1.7c0.3,0,0.6,0.3,0.6,0.6V86.6z"/>
			<path class="st1" d="M345.8,85.4l0,0.2c0,0.3-0.3,0.6-0.6,0.6h-10.7c0.3,3,2.4,4.6,5,4.6c1.5,0,2.9-0.5,4-1.4
				c0.2-0.2,0.6-0.1,0.8,0.1l0.8,1.1c-1.8,1.7-3.7,2.2-5.8,2.2c-4.2,0-7.1-3-7.1-7.3c0-4.3,3-7.3,7-7.3
				C343,78.1,345.8,81.1,345.8,85.4 M334.5,84.4h9c-0.3-2.6-2-4.3-4.4-4.3C336.6,80.1,334.9,81.9,334.5,84.4"/>
			<path class="st1" d="M358.5,80.9c-0.2,0.3-0.5,0.4-0.8,0.2c-1-0.5-2.5-1-4.1-1c-2,0-3.3,0.8-3.3,2.2c0,1.2,1,1.8,2.9,2l1.7,0.2
				c3,0.4,4.7,1.6,4.7,3.9c0,2.7-2.4,4.4-6.2,4.4c-1.8,0-4.1-0.4-5.9-1.8l0.7-1.1c0.2-0.3,0.6-0.4,0.9-0.2c1,0.7,2.3,1.2,4.3,1.2
				c2.4,0,3.9-0.8,3.9-2.3c0-1.1-1-1.8-2.9-2.1l-1.7-0.2c-3.2-0.4-4.7-1.8-4.7-3.9c0-2.7,2.2-4.3,5.6-4.3c2,0,3.8,0.5,5.1,1.2
				c0.3,0.2,0.4,0.5,0.2,0.8L358.5,80.9z"/>
			<path class="st1" d="M370.9,90.2c-0.2-0.3-0.5-0.4-0.8-0.2c-0.7,0.4-1.6,0.7-2.5,0.7c-1.6,0-2.8-1-2.8-3.2v-7.4h3.8
				c0.3,0,0.6-0.3,0.6-0.6v-1.4h-4.3v-3.6c0-0.3-0.3-0.6-0.6-0.6h-1.6v4.2h-0.9c-0.4,0-0.7,0.3-0.7,0.7v1.3h1.5v7.4
				c0,3.5,1.8,5.2,4.8,5.2c1.7,0,3.1-0.6,4.2-1.4L370.9,90.2z"/>
			<path class="st1" d="M314.6,81.8c-0.2-5.8-5.1-10.4-10.9-10.1c-0.3,0-0.6,0-1,0.1c-5.3,0.7-9.4,5.4-9.2,10.8
				c0.2,5.8,5.1,10.4,10.9,10.1c2.1-0.1,4.1-0.8,5.8-2l-1.6-1.2c-0.2-0.1-0.4-0.1-0.6,0c-1.2,0.7-2.7,1.1-4.2,1.1
				c-4.3-0.1-7.8-3.5-8-7.8c-0.2-4.9,3.9-9,8.9-8.5c4,0.3,7.1,3.6,7.4,7.6c0.1,1.9-0.4,3.7-1.4,5.2c-0.2,0.3-0.1,0.6,0.1,0.8l1.4,1
				C313.8,86.8,314.6,84.4,314.6,81.8"/>
		</g>
	</g>
	<g>
		<g>
			<g>
				<g>
					<path class="st4" d="M107.1,34c0-0.4,0.3-0.8,0.8-0.8h9.4c4.9,0,8.7,3.3,8.7,7.6c0,3.2-2.6,5.6-4.5,6.5
						c2.2,0.7,5.3,2.9,5.3,6.7c0,4.6-3.9,7.9-9,7.9h-9.9c-0.5,0-0.8-0.4-0.8-0.8V34z M116.8,45.3c2.1,0,3.5-1.6,3.5-3.7
						c0-2.1-1.4-3.5-3.5-3.5h-4.4v7.2H116.8z M117.3,57.1c2.1,0,3.7-1.6,3.7-3.7c0-2.1-2.1-3.6-4.2-3.6h-4.5v7.3H117.3z"/>
					<path class="st4" d="M134.1,34c0-0.4,0.4-0.8,0.8-0.8h3.8c0.4,0,0.8,0.4,0.8,0.8v27.2c0,0.4-0.4,0.8-0.8,0.8h-3.8
						c-0.4,0-0.8-0.4-0.8-0.8V34z"/>
					<path class="st4" d="M148.6,33.6c0-0.4,0.4-0.7,0.8-0.7h1L167.5,51h0V34c0-0.4,0.3-0.8,0.8-0.8h3.8c0.4,0,0.8,0.4,0.8,0.8v27.6
						c0,0.4-0.4,0.7-0.8,0.7h-1l-17.2-18.9h0v17.7c0,0.4-0.3,0.8-0.8,0.8h-3.7c-0.4,0-0.8-0.4-0.8-0.8V33.6z"/>
					<path class="st4" d="M178.2,60.9L191,33.3c0.1-0.2,0.3-0.5,0.7-0.5h0.4c0.4,0,0.6,0.2,0.7,0.5l12.7,27.6
						c0.2,0.5-0.1,1.1-0.7,1.1h-3.6c-0.6,0-0.9-0.2-1.2-0.8l-2-4.4h-12.3l-2,4.4c-0.2,0.4-0.5,0.8-1.2,0.8h-3.6
						C178.3,62,178,61.5,178.2,60.9z M196,52.2l-4.1-9h-0.1l-4,9H196z"/>
					<path class="st4" d="M210.8,34c0-0.4,0.3-0.8,0.8-0.8h11.7c4.9,0,9,3.9,9,8.8c0,3.8-2.5,6.9-6.1,8.3l5.6,10.4
						c0.3,0.5,0,1.2-0.7,1.2h-4.3c-0.4,0-0.6-0.2-0.7-0.4l-5.5-10.9h-4.6v10.5c0,0.4-0.4,0.8-0.8,0.8h-3.8c-0.5,0-0.8-0.4-0.8-0.8
						V34z M222.9,46.3c2.2,0,4.1-1.9,4.1-4.2c0-2.2-1.9-4-4.1-4h-6.7v8.2H222.9z"/>
					<path class="st4" d="M245.3,48.1L236,34.4c-0.3-0.5,0-1.2,0.7-1.2h4.2c0.3,0,0.5,0.2,0.7,0.4l6.6,9.4l6.6-9.4
						c0.1-0.2,0.3-0.4,0.7-0.4h4.2c0.7,0,1,0.7,0.7,1.2l-9.5,13.7v13.1c0,0.4-0.4,0.8-0.8,0.8h-3.8c-0.5,0-0.8-0.4-0.8-0.8V48.1z"/>
					<path class="st4" d="M280,38.2h-6.3c-0.5,0-0.8-0.4-0.8-0.8V34c0-0.4,0.3-0.8,0.8-0.8h18c0.5,0,0.8,0.4,0.8,0.8v3.4
						c0,0.4-0.3,0.8-0.8,0.8h-6.3v23c0,0.4-0.4,0.8-0.8,0.8h-3.8c-0.4,0-0.8-0.4-0.8-0.8V38.2z"/>
					<path class="st4" d="M298.4,34c0-0.4,0.3-0.8,0.8-0.8h11.7c4.9,0,9,3.9,9,8.8c0,3.8-2.5,6.9-6.1,8.3l5.6,10.4
						c0.3,0.5,0,1.2-0.7,1.2h-4.3c-0.4,0-0.6-0.2-0.7-0.4l-5.5-10.9h-4.6v10.5c0,0.4-0.4,0.8-0.8,0.8h-3.8c-0.5,0-0.8-0.4-0.8-0.8
						V34z M310.4,46.3c2.2,0,4.1-1.9,4.1-4.2c0-2.2-1.9-4-4.1-4h-6.7v8.2H310.4z"/>
					<path class="st4" d="M327.4,34c0-0.4,0.3-0.8,0.8-0.8h16.7c0.5,0,0.8,0.4,0.8,0.8v3.4c0,0.4-0.3,0.8-0.8,0.8h-12.2v6.7h10.1
						c0.4,0,0.8,0.4,0.8,0.8v3.4c0,0.5-0.4,0.8-0.8,0.8h-10.1v7.2h12.2c0.5,0,0.8,0.4,0.8,0.8v3.4c0,0.4-0.3,0.8-0.8,0.8h-16.7
						c-0.5,0-0.8-0.4-0.8-0.8V34z"/>
					<path class="st4" d="M353.2,34c0-0.4,0.3-0.8,0.8-0.8h16.7c0.5,0,0.8,0.4,0.8,0.8v3.4c0,0.4-0.3,0.8-0.8,0.8h-12.2v6.7h10.1
						c0.4,0,0.8,0.4,0.8,0.8v3.4c0,0.5-0.4,0.8-0.8,0.8h-10.1v7.2h12.2c0.5,0,0.8,0.4,0.8,0.8v3.4c0,0.4-0.3,0.8-0.8,0.8h-16.7
						c-0.5,0-0.8-0.4-0.8-0.8V34z"/>
				</g>
			</g>
		</g>
		<g>
			<polygon class="st5" points="12.6,36.1 0,28.8 0,70.7 12.6,63.5 			"/>
			<polygon class="st6" points="69.1,36.1 69.1,63.5 81.7,70.7 81.7,28.8 			"/>
			<polygon class="st7" points="12.6,63.5 0,70.7 36.3,91.7 36.3,77.1 			"/>
			<polygon class="st8" points="69.1,63.5 45.4,77.1 45.4,91.7 81.7,70.7 			"/>
			<polygon class="st5" points="21.7,36.1 21.7,58.2 40.8,47.2 			"/>
			<polygon class="st6" points="60,58.2 60,36.1 58.1,37.2 40.8,47.2 			"/>
			<g>
				<polygon class="st9" points="40.8,0 4.5,21 17.1,28.2 40.8,14.5 64.5,28.2 77.1,21 				"/>
				<polygon class="st9" points="40.8,25 21.7,36.1 40.8,47.2 60,36.1 				"/>
			</g>
			<polygon class="st7" points="21.7,58.2 40.8,69.3 40.8,47.2 			"/>
			<polygon class="st8" points="40.8,69.3 60,58.2 40.8,47.2 			"/>
		</g>
		<g>
			<path class="st7" d="M380.7,35.2c0,1.5-1.2,2.7-2.7,2.7c-1.5,0-2.7-1.2-2.7-2.7c0-1.5,1.2-2.6,2.7-2.6
				C379.5,32.6,380.7,33.7,380.7,35.2z M375.9,35.2c0,1.2,0.9,2.1,2.1,2.1c1.2,0,2-0.9,2-2.1c0-1.2-0.9-2.1-2-2.1
				C376.8,33.1,375.9,34.1,375.9,35.2z M377.6,36.6h-0.6V34c0.2,0,0.6-0.1,1-0.1c0.5,0,0.7,0.1,0.9,0.2c0.1,0.1,0.3,0.3,0.3,0.6
				c0,0.3-0.2,0.5-0.5,0.6v0c0.3,0.1,0.4,0.3,0.5,0.6c0.1,0.4,0.1,0.6,0.2,0.7h-0.7c-0.1-0.1-0.1-0.3-0.2-0.6c0-0.3-0.2-0.4-0.5-0.4
				h-0.3V36.6z M377.6,35.1h0.3c0.3,0,0.6-0.1,0.6-0.4c0-0.2-0.2-0.4-0.6-0.4c-0.2,0-0.3,0-0.3,0V35.1z"/>
		</g>
	</g>
</g>
</svg>
